<?xml version="1.0" encoding="UTF-8" standalone="no"?>
<!-- Uploaded to: SVG Repo, www.svgrepo.com, Generator: SVG Repo Mixer Tools -->

<svg
   width="800"
   height="800"
   viewBox="0 0 36 36"
   aria-hidden="true"
   role="img"
   class="iconify iconify--twemoji"
   preserveAspectRatio="xMidYMid"
   version="1.1"
   id="svg1"
   xmlns="http://www.w3.org/2000/svg"
   xmlns:svg="http://www.w3.org/2000/svg">
  <defs
     id="defs1" />
  <path
     fill="#be1931"
     d="m 17,27 a 3,3 0 0 1 -3,-3 v -4 a 3,3 0 0 1 3,-3 c 0.603,-0.006 6,-1 6,-5 0,-2 -2,-4 -5,-4 -2.441,0 -4,2 -4,3 a 3,3 0 1 1 -6,0 c 0,-4.878 4.58,-9 10,-9 8,0 11,5.982 11,11 0,4.145 -2.277,7.313 -6.413,8.92 -0.9,0.351 -1.79,0.587 -2.587,0.747 V 24 a 3,3 0 0 1 -3,3 z"
     id="path1" />
  <circle
     fill="#be1931"
     cx="17"
     cy="32"
     r="3"
     id="circle1" />
</svg>
